<?xml version="1.0" ?><!DOCTYPE svg  PUBLIC '-//W3C//DTD SVG 1.1//EN'  'http://www.w3.org/Graphics/SVG/1.1/DTD/svg11.dtd'><svg enable-background="new 0 0 32 32" height="32px" id="Слой_1" version="1.1" viewBox="0 0 32 32" width="32px" xml:space="preserve" xmlns="http://www.w3.org/2000/svg" xmlns:xlink="http://www.w3.org/1999/xlink"><g id="More_Vertical"><path d="M16,8c2.209,0,4-1.791,4-4c0-2.209-1.791-4-4-4s-4,1.791-4,4C12,6.209,13.791,8,16,8z M16,2   c1.105,0,2,0.896,2,2s-0.895,2-2,2s-2-0.895-2-2S14.895,2,16,2z" fill="#121313"/><path d="M16,24c-2.209,0-4,1.791-4,4c0,2.209,1.791,4,4,4s4-1.791,4-4C20,25.791,18.209,24,16,24z M16,30   c-1.105,0-2-0.895-2-2s0.895-2,2-2s2,0.896,2,2S17.105,30,16,30z" fill="#121313"/><path d="M16,12c-2.209,0-4,1.791-4,4c0,2.209,1.791,4,4,4s4-1.791,4-4C20,13.791,18.209,12,16,12z M16,18   c-1.105,0-2-0.895-2-2s0.895-2,2-2s2,0.896,2,2S17.105,18,16,18z" fill="#121313"/></g><g/><g/><g/><g/><g/><g/></svg>